# File created by Blade
# Date/Time:  Tue Jan 27 18:55:59 2015
#---------------------------------------------------------
:version 1.10
:name HOM
:units
  mass 1.0
  length 1.000000
  angle deg
:documentation
     Acclaim Skeleton File
:root
   axis xyz
   order TX TY TZ RX RY RZ
   position 0.000000 0.000000 0.000000
   orientation 0 0 0
:bonedata
   begin
      id 1
      name Spine_dum
      direction 0.000000 1.000000 0.000000
      length 5.195262
      axis 0.0 0.0 0.0 xyz
   end
   begin
      id 2
      name LeftUpLeg_dum
      direction 1.000000 0.000000 0.000000
      length 3.351363
      axis 0.0 0.0 0.0 xyz
   end
   begin
      id 3
      name RightUpLeg_dum
      direction -1.000000 0.000000 0.000000
      length 3.351363
      axis 0.0 0.0 0.0 xyz
   end
   begin
      id 4
      name Spine
      direction 0.000000 1.000000 0.000000
      length 0.000000
      axis 0.0 0.0 0.0 xyz
      dof rx ry rz
   end
   begin
      id 5
      name Spine_dum1
      direction 0.000000 1.000000 0.000000
      length 15.653875
      axis 0.0 0.0 0.0 xyz
   end
   begin
      id 6
      name Spine_dum2
      direction 0.000000 1.000000 0.000000
      length 10.329768
      axis 0.0 0.0 0.0 xyz
   end
   begin
      id 7
      name Spine_dum3
      direction 0.000000 1.000000 0.000000
      length 10.329768
      axis 0.0 0.0 0.0 xyz
   end
   begin
      id 8
      name Head
      direction 0.000000 1.000000 0.000000
      length 4.527550
      axis 0.0 0.0 0.0 xyz
      dof rx ry rz
   end
   begin
      id 9
      name LeftShoulder
      direction 1.000000 0.000000 0.000000
      length 6.996006
      axis 0.0 0.0 -90.0 xyz
      dof rx ry rz
   end
   begin
      id 10
      name LeftArm
      direction 1.000000 0.000000 0.000000
      length 10.209302
      axis 0.0 0.0 -90.0 xyz
      dof rx ry rz
   end
   begin
      id 11
      name LeftForeArm
      direction 1.000000 0.000000 0.000000
      length 8.563163
      axis 0.0 0.0 -90.0 xyz
      dof ry rz rx
   end
   begin
      id 12
      name LeftHand
      direction 0.000000 0.000000 0.000000
      length 0.000000
      axis 0.0 0.0 -90.0 xyz
      dof rx ry rz
   end
   begin
      id 13
      name LeftHand_dum1
      direction 0.000000 0.000000 0.000000
      length 0.000000
      axis 0.0 0.0 -90.0 xyz
   end
   begin
      id 14
      name LeftHand_dum2
      direction 1.000000 0.000000 0.000000
      length 3.937000
      axis 0.0 0.0 -90.0 xyz
   end
   begin
      id 15
      name LeftHandThumb1
      direction 0.000000 0.000000 1.000000
      length 3.937000
      axis 0.0 0.0 -90.0 xyz
      dof rx rz ry
   end
   begin
      id 16
      name RightShoulder
      direction -1.000000 0.000000 0.000000
      length 6.996006
      axis 0.0 0.0 90.0 xyz
      dof rx ry rz
   end
   begin
      id 17
      name RightArm
      direction -1.000000 0.000000 0.000000
      length 10.209302
      axis 0.0 0.0 90.0 xyz
      dof rx ry rz
   end
   begin
      id 18
      name RightForeArm
      direction -1.000000 0.000000 0.000000
      length 8.563163
      axis 0.0 0.0 90.0 xyz
      dof ry rz rx
   end
   begin
      id 19
      name RightHand
      direction 0.000000 0.000000 0.000000
      length 0.000000
      axis 0.0 0.0 90.0 xyz
      dof rx ry rz
   end
   begin
      id 20
      name RightHand_dum1
      direction 0.000000 0.000000 0.000000
      length 0.000000
      axis 0.0 0.0 90.0 xyz
   end
   begin
      id 21
      name RightHand_dum2
      direction -1.000000 0.000000 0.000000
      length 3.937000
      axis 0.0 0.0 90.0 xyz
   end
   begin
      id 22
      name RightHandThumb1
      direction 0.000000 0.000000 1.000000
      length 3.937000
      axis 0.0 0.0 90.0 xyz
      dof rx rz ry
   end
   begin
      id 23
      name LeftUpLeg
      direction 0.000000 -1.000000 0.000000
      length 16.346831
      axis 0.0 0.0 0.0 xyz
      dof rx ry rz
   end
   begin
      id 24
      name LeftLeg
      direction 0.000000 -1.000000 0.000000
      length 13.959795
      axis 0.0 0.0 0.0 xyz
      dof rx ry rz
   end
   begin
      id 25
      name LeftFoot
      direction 0.000000 -0.258819 0.965926
      length 5.165550
      axis 15.0 0.0 0.0 xyz
      dof rx ry rz
   end
   begin
      id 26
      name LeftToeBase
      direction 0.000000 0.000000 1.000000
      length 2.952750
      axis 0.0 0.0 0.0 xyz
      dof rx ry rz
   end
   begin
      id 27
      name RightUpLeg
      direction 0.000000 -1.000000 0.000000
      length 16.346831
      axis 0.0 0.0 0.0 xyz
      dof rx ry rz
   end
   begin
      id 28
      name RightLeg
      direction 0.000000 -1.000000 0.000000
      length 13.959795
      axis 0.0 0.0 0.0 xyz
      dof rx ry rz
   end
   begin
      id 29
      name RightFoot
      direction 0.000000 -0.258819 0.965926
      length 5.165550
      axis 15.0 0.0 0.0 xyz
      dof rx ry rz
   end
   begin
      id 30
      name RightToeBase
      direction 0.000000 0.000000 1.000000
      length 2.952750
      axis 0.0 0.0 0.0 xyz
      dof rx ry rz
   end
:hierarchy
   begin
      root Spine_dum LeftUpLeg_dum RightUpLeg_dum
      Spine_dum Spine
      LeftUpLeg_dum LeftUpLeg
      RightUpLeg_dum RightUpLeg
      Spine Spine_dum1 Spine_dum2 Spine_dum3
      Spine_dum1 Head
      Spine_dum2 LeftShoulder
      Spine_dum3 RightShoulder
      LeftShoulder LeftArm
      LeftArm LeftForeArm
      LeftForeArm LeftHand
      LeftHand LeftHand_dum1 LeftHand_dum2
      LeftHand_dum1 LeftHandThumb1
      RightShoulder RightArm
      RightArm RightForeArm
      RightForeArm RightHand
      RightHand RightHand_dum1 RightHand_dum2
      RightHand_dum1 RightHandThumb1
      LeftUpLeg LeftLeg
      LeftLeg LeftFoot
      LeftFoot LeftToeBase
      RightUpLeg RightLeg
      RightLeg RightFoot
      RightFoot RightToeBase
   end

# File created by Blade
# Date/Time:  Tue Jan 27 18:55:50 2015
# Frame Rate: 120.000 fps
#------------------------------------------------------
:FULLY-SPECIFIED
:DEGREES
489
root -2.483654 31.624598 -4.813225 2.812571 34.399190 1.147592
Spine 0.441376 -11.847848 -3.804786
Head 10.654927 2.467715 -1.949540
LeftShoulder -16.653913 12.640749 10.566785
LeftArm 22.296021 -28.540869 -70.075311
LeftForeArm -13.770687 -0.000000 76.526449
LeftHand -6.984507 -0.000000 11.975752
LeftHandThumb1 -26.253704 0.000000 33.147579
RightShoulder -11.609663 -4.694654 -12.320690
RightArm 3.663119 -32.332670 89.949173
RightForeArm -24.032758 0.000000 24.992722
RightHand -14.480506 -0.000000 11.137040
RightHandThumb1 -24.326973 -0.000000 -32.862282
LeftUpLeg -6.194743 -20.092269 -6.323284
LeftLeg 18.510098 -0.000000 -0.000000
LeftFoot -23.925784 18.688610 -17.609202
LeftToeBase 7.993216 -0.000000 -0.000000
RightUpLeg -43.200935 13.374090 -0.065535
RightLeg 91.130620 -0.000000 -0.000000
RightFoot -3.074542 -10.868379 11.301967
RightToeBase -1.179711 -0.000000 0.000000
490
root -2.479467 31.623976 -4.815307 2.795032 34.360288 1.120838
Spine 0.445870 -11.820152 -3.770247
Head 10.687941 2.456930 -1.912188
LeftShoulder -16.670122 12.693934 10.574566
LeftArm 22.288959 -28.497551 -70.065812
LeftForeArm -13.881919 0.000000 76.528851
LeftHand -6.940155 -0.000000 11.920574
LeftHandThumb1 -26.253704 0.000000 33.147579
RightShoulder -11.618396 -4.666071 -12.323872
RightArm 3.643053 -32.318075 89.900649
RightForeArm -23.997347 -0.000000 24.941143
RightHand -14.544512 -0.000000 10.977206
RightHandThumb1 -24.326973 -0.000000 -32.862282
LeftUpLeg -6.206127 -20.027010 -6.306921
LeftLeg 18.542432 -0.000000 -0.000000
LeftFoot -23.939430 18.631427 -17.633063
LeftToeBase 8.037897 -0.000000 -0.000000
RightUpLeg -43.181486 13.361334 -0.060687
RightLeg 91.047296 -0.000000 -0.000000
RightFoot -3.188153 -10.862987 11.201959
RightToeBase -0.669948 -0.000000 0.000000
491
root -2.475786 31.623711 -4.817595 2.784579 34.317296 1.106302
Spine 0.453048 -11.791190 -3.757284
Head 10.721209 2.451787 -1.855393
LeftShoulder -16.678973 12.714977 10.601243
LeftArm 22.242881 -28.434413 -70.026006
LeftForeArm -13.998962 0.000000 76.522814
LeftHand -6.897890 -0.000000 11.997140
LeftHandThumb1 -26.253704 0.000000 33.147579
RightShoulder -11.619779 -4.676605 -12.302818
RightArm 3.659552 -32.270361 89.827154
RightForeArm -24.244640 0.000000 24.931140
RightHand -14.711773 -0.000000 10.933311
RightHandThumb1 -24.326973 -0.000000 -32.862282
LeftUpLeg -6.217725 -19.933504 -6.297754
LeftLeg 18.568051 -0.000000 -0.000000
LeftFoot -23.945076 18.553680 -17.689408
LeftToeBase 8.006734 -0.000000 -0.000000
RightUpLeg -43.162022 13.357257 -0.077291
RightLeg 90.963550 -0.000000 -0.000000
RightFoot -3.265311 -10.821558 11.373001
RightToeBase -0.264725 -0.000000 0.000000
492
root -2.472683 31.623331 -4.818265 2.772558 34.286065 1.077012
Spine 0.445624 -11.776932 -3.727682
Head 10.764919 2.456791 -1.804677
LeftShoulder -16.683093 12.736634 10.629806
LeftArm 22.193314 -28.369690 -69.984002
LeftForeArm -14.160247 -0.000000 76.496849
LeftHand -6.837548 -0.000000 12.121931
LeftHandThumb1 -26.253704 0.000000 33.147579
RightShoulder -11.625295 -4.687776 -12.296724
RightArm 3.680103 -32.235019 89.749376
RightForeArm -24.229481 -0.000000 24.869555
RightHand -14.629342 -0.000000 11.045805
RightHandThumb1 -24.326973 -0.000000 -32.862282
LeftUpLeg -6.238815 -19.833345 -6.267920
LeftLeg 18.608274 -0.000000 -0.000000
LeftFoot -23.976278 18.440877 -17.772189
LeftToeBase 8.057305 -0.000000 -0.000000
RightUpLeg -43.149028 13.361607 -0.072509
RightLeg 90.874992 -0.000000 -0.000000
RightFoot -3.434221 -10.786644 11.723631
RightToeBase 0.125362 -0.000000 -0.000000
493
root -2.469454 31.622874 -4.819103 2.756491 34.249309 1.055012
Spine 0.444861 -11.756087 -3.709581
Head 10.822424 2.456699 -1.750544
LeftShoulder -16.705248 12.760908 10.665453
LeftArm 22.188715 -28.314262 -70.007605
LeftForeArm -14.306297 0.000000 76.446598
LeftHand -6.771726 -0.000000 12.207200
LeftHandThumb1 -26.253704 0.000000 33.147579
RightShoulder -11.620834 -4.709658 -12.290172
RightArm 3.694753 -32.151379 89.687003
RightForeArm -24.149705 -0.000000 24.807775
RightHand -14.709318 -0.000000 10.873399
RightHandThumb1 -24.326973 -0.000000 -32.862282
LeftUpLeg -6.248911 -19.717881 -6.245768
LeftLeg 18.639890 -0.000000 -0.000000
LeftFoot -23.992045 18.303386 -17.843625
LeftToeBase 8.129971 -0.000000 -0.000000
RightUpLeg -43.124301 13.347865 -0.072748
RightLeg 90.792723 -0.000000 -0.000000
RightFoot -3.263997 -10.847703 11.352298
RightToeBase -0.573391 -0.000000 0.000000
494
root -2.466492 31.622342 -4.820497 2.746700 34.215614 1.045626
Spine 0.445834 -11.728723 -3.710013
Head 10.885807 2.436894 -1.684739
LeftShoulder -16.691895 12.765908 10.708256
LeftArm 22.158838 -28.294588 -70.024574
LeftForeArm -14.445179 0.000000 76.413734
LeftHand -6.777271 -0.000000 12.265785
LeftHandThumb1 -26.253704 0.000000 33.147579
RightShoulder -11.625044 -4.698680 -12.287059
RightArm 3.685672 -32.120987 89.640829
RightForeArm -24.057737 0.000000 24.727244
RightHand -14.772439 -0.000000 10.864024
RightHandThumb1 -24.326973 -0.000000 -32.862282
LeftUpLeg -6.273761 -19.580728 -6.230830
LeftLeg 18.699367 -0.000000 -0.000000
LeftFoot -24.010357 18.137897 -17.930376
LeftToeBase 8.207015 -0.000000 -0.000000
RightUpLeg -43.106898 13.342828 -0.076237
RightLeg 90.717973 -0.000000 -0.000000
RightFoot -3.163872 -10.924953 11.115073
RightToeBase -0.990079 -0.000000 0.000000
495
root -2.463294 31.622013 -4.821796 2.739150 34.185781 1.036413
Spine 0.444739 -11.716838 -3.707918
Head 10.946690 2.427751 -1.633745
LeftShoulder -16.690745 12.737520 10.730999
LeftArm 22.092021 -28.267570 -69.991879
LeftForeArm -14.592359 0.000000 76.392240
LeftHand -6.731177 -0.000000 12.351268
LeftHandThumb1 -26.253704 0.000000 33.147579
RightShoulder -11.623050 -4.691169 -12.273472
RightArm 3.684185 -32.119731 89.584103
RightForeArm -24.023173 -0.000000 24.651436
RightHand -14.782731 -0.000000 10.831279
RightHandThumb1 -24.326973 -0.000000 -32.862282
LeftUpLeg -6.284546 -19.463898 -6.218140
LeftLeg 18.722521 -0.000000 -0.000000
LeftFoot -24.006148 18.013164 -17.966560
LeftToeBase 8.229453 -0.000000 -0.000000
RightUpLeg -43.095041 13.334720 -0.090748
RightLeg 90.653686 -0.000000 -0.000000
RightFoot -3.099017 -10.936125 10.981192
RightToeBase -1.280605 -0.000000 0.000000
